<svg width="70" height="70" viewBox="0 0 70 70" fill="none" xmlns="http://www.w3.org/2000/svg">
<path fill-rule="evenodd" clip-rule="evenodd" d="M15.6338 7.08897C15.5839 7.1387 15.4594 7.17939 15.3571 7.17939C15.2549 7.17939 15.1712 7.20652 15.1712 7.23967C15.1712 7.27283 15.1304 7.29996 15.0804 7.29996C15.0305 7.29996 14.9896 7.34065 14.9896 7.39038C14.9896 7.44011 14.9629 7.4808 14.9303 7.4808C14.8976 7.4808 14.8538 7.54862 14.8329 7.6315C14.812 7.71439 14.7706 7.78221 14.741 7.78221C14.7095 7.78221 14.687 13.5523 14.687 21.6094C14.687 33.7639 14.698 35.4628 14.7778 35.6531C14.8277 35.7721 14.8686 36.0331 14.8686 36.2331C14.8686 36.4354 14.8955 36.5967 14.9291 36.5967C14.9624 36.5967 14.9896 36.7155 14.9896 36.8606C14.9896 37.0058 15.0305 37.2219 15.0804 37.341C15.1304 37.46 15.1712 37.626 15.1712 37.71C15.1712 37.794 15.1985 37.8626 15.2317 37.8626C15.265 37.8626 15.2923 37.9711 15.2923 38.1038C15.2923 38.2364 15.3195 38.3449 15.3528 38.3449C15.3861 38.3449 15.4143 38.406 15.4154 38.4805C15.4167 38.5551 15.4565 38.684 15.5041 38.7669C15.5517 38.8498 15.5916 38.9921 15.5928 39.0833C15.5939 39.1745 15.6191 39.2491 15.6487 39.2491C15.6783 39.2491 15.7204 39.3441 15.7422 39.4601C15.7641 39.5761 15.808 39.6711 15.8398 39.6711C15.8715 39.6711 15.8976 39.7389 15.8976 39.8218C15.8976 39.9047 15.9248 39.9725 15.9581 39.9725C15.9914 39.9725 16.0186 40.0351 16.0186 40.1117C16.0186 40.1882 16.0586 40.3035 16.1075 40.3679C16.1564 40.4322 16.1972 40.5323 16.1983 40.5904C16.1993 40.6484 16.2274 40.6959 16.2607 40.6959C16.294 40.6959 16.3212 40.7637 16.3212 40.8466C16.3212 40.9404 16.3556 40.9973 16.412 40.9973C16.4685 40.9973 16.5028 41.0542 16.5028 41.148C16.5028 41.2309 16.5301 41.2987 16.5634 41.2987C16.5966 41.2987 16.6239 41.3549 16.6239 41.4235C16.6239 41.4923 16.658 41.5862 16.6995 41.6325C16.8808 41.8337 16.9265 41.9005 16.9265 41.9635C16.9265 42.0005 16.9606 42.0685 17.0022 42.1147C17.1921 42.3255 17.2292 42.3853 17.2292 42.4798C17.2292 42.5354 17.2972 42.6437 17.3805 42.7206C17.4637 42.7974 17.5318 42.9022 17.5318 42.9535C17.5318 43.0049 17.559 43.0468 17.5923 43.0468C17.6256 43.0468 17.6528 43.0759 17.6528 43.1114C17.6528 43.147 17.6869 43.2138 17.7285 43.2601C17.896 43.4461 17.9555 43.5259 17.9555 43.5648C17.9555 43.5873 18.0236 43.6685 18.1068 43.7454C18.19 43.8222 18.2581 43.9139 18.2581 43.9493C18.2581 43.9846 18.3535 44.1057 18.47 44.2184C18.5865 44.3311 18.6818 44.4412 18.6818 44.4632C18.6818 44.4851 18.784 44.6081 18.9088 44.7364C19.2193 45.0555 19.2871 45.1412 19.2871 45.2144C19.2871 45.249 19.3163 45.2773 19.3519 45.2773C19.4358 45.2773 19.5897 45.4306 19.5897 45.5141C19.5897 45.5496 19.6306 45.5787 19.6805 45.5787C19.7305 45.5787 19.7713 45.6057 19.7713 45.6387C19.7713 45.6999 20.6556 46.6035 20.7155 46.6035C20.7736 46.6035 20.9213 46.7735 20.9213 46.8403C20.9213 46.8758 20.9505 46.9049 20.9862 46.9049C21.07 46.9049 21.224 47.0582 21.224 47.1417C21.224 47.1772 21.2661 47.2063 21.3177 47.2063C21.3692 47.2063 21.4744 47.2741 21.5516 47.357C21.6287 47.4399 21.7227 47.5077 21.7606 47.5077C21.7983 47.5077 21.8293 47.5367 21.8293 47.5722C21.8293 47.6429 21.9784 47.8091 22.0418 47.8091C22.0636 47.8091 22.174 47.904 22.2872 48.0201C22.4003 48.1361 22.5215 48.231 22.5564 48.231C22.5914 48.231 22.6356 48.2717 22.6547 48.3215C22.6739 48.3712 22.7215 48.4119 22.7605 48.4119C22.7996 48.4119 22.8708 48.4661 22.9187 48.5325C22.9667 48.5988 23.0408 48.653 23.0834 48.653C23.126 48.653 23.1609 48.6937 23.1609 48.7434C23.1609 48.7932 23.203 48.8339 23.2546 48.8339C23.3061 48.8339 23.4113 48.9017 23.4884 48.9846C23.5656 49.0675 23.6472 49.1353 23.6698 49.1353C23.6924 49.1353 23.7844 49.2031 23.8741 49.286C23.9638 49.3689 24.0599 49.4367 24.0876 49.4367C24.1461 49.4367 24.3109 49.5913 24.3109 49.6462C24.3109 49.7081 22.0719 51.9082 22.0088 51.9082C21.9766 51.9082 21.9503 51.9353 21.9503 51.9685C21.9503 52.0315 21.4917 52.511 21.4315 52.511C21.3721 52.511 21.224 52.6801 21.224 52.7479C21.224 52.7834 21.1948 52.8124 21.1591 52.8124C21.0753 52.8124 20.9213 52.9658 20.9213 53.0493C20.9213 53.0848 20.8922 53.1138 20.8565 53.1138C20.7859 53.1138 20.6187 53.2623 20.6187 53.3248C20.6187 53.3874 20.4515 53.5358 20.3809 53.5358C20.3452 53.5358 20.3161 53.5649 20.3161 53.6004C20.3161 53.6707 20.167 53.8372 20.1042 53.8372C20.0414 53.8372 19.8924 54.0038 19.8924 54.0741C19.8924 54.1096 19.8632 54.1386 19.8275 54.1386C19.7437 54.1386 19.5897 54.292 19.5897 54.3755C19.5897 54.411 19.5606 54.44 19.5249 54.44C19.4411 54.44 19.2871 54.5934 19.2871 54.6769C19.2871 54.7124 19.2579 54.7414 19.2223 54.7414C19.1384 54.7414 18.9845 54.8948 18.9845 54.9783C18.9845 55.0138 18.956 55.0429 18.921 55.0429C18.8384 55.0429 18.2581 55.6208 18.2581 55.7031C18.2581 55.7378 18.2297 55.7662 18.1951 55.7662C18.1167 55.7662 18.0257 55.841 17.6651 56.2017C17.1487 56.7183 16.9265 56.9675 16.9265 57.0304C16.9265 57.0645 16.8973 57.0924 16.8617 57.0924C16.7779 57.0924 16.6239 57.2458 16.6239 57.3293C16.6239 57.3648 16.5947 57.3938 16.5591 57.3938C16.5233 57.3938 16.4568 57.431 16.4113 57.4765C16.3203 57.567 15.5329 57.5449 15.3417 57.4463C15.2856 57.4175 14.8861 57.3938 14.4539 57.3938C14.0217 57.3938 13.6591 57.3695 13.6479 57.3397C13.6265 57.2821 12.4436 57.159 11.4639 57.1125C11.1394 57.0971 10.8738 57.0591 10.8738 57.0282C10.8738 56.996 10.5108 56.9719 10.0264 56.9719C9.50179 56.9719 9.17899 56.9948 9.17899 57.0321C9.17899 57.0653 9.08366 57.0924 8.96715 57.0924C8.85063 57.0924 8.7553 57.1165 8.7553 57.146C8.7553 57.1754 8.65997 57.2174 8.54345 57.2391C8.42694 57.2609 8.33161 57.3046 8.33161 57.3363C8.33161 57.3679 8.30068 57.3938 8.26291 57.3938C8.22508 57.3938 8.13107 57.4616 8.0539 57.5445C7.97679 57.6274 7.87153 57.6952 7.82002 57.6952C7.76845 57.6952 7.72633 57.7243 7.72633 57.7598C7.72633 57.7954 7.69231 57.8622 7.65067 57.9084C7.47102 58.1079 7.42369 58.1761 7.42369 58.2352C7.42369 58.2698 7.397 58.298 7.36432 58.298C7.33169 58.298 7.28787 58.3659 7.26699 58.4487C7.2461 58.5316 7.2047 58.5995 7.17504 58.5995C7.14532 58.5995 7.12105 58.7622 7.12105 58.9611C7.12105 59.1621 7.09418 59.3228 7.06053 59.3228C7.02724 59.3228 7 59.3906 7 59.4735C7 59.5564 7.02724 59.6242 7.06053 59.6242C7.09418 59.6242 7.12105 59.785 7.12105 59.9859C7.12105 60.1868 7.14793 60.3476 7.18158 60.3476C7.21487 60.3476 7.24211 60.4135 7.24211 60.494C7.24211 60.5745 7.28297 60.6811 7.3329 60.7308C7.38284 60.7806 7.42369 60.8503 7.42369 60.8859C7.42369 60.9214 7.45093 60.9504 7.48422 60.9504C7.51751 60.9504 7.54474 60.9899 7.54474 61.0381C7.54474 61.0864 7.61284 61.1936 7.69606 61.2765C7.77929 61.3594 7.84738 61.4556 7.84738 61.4902C7.84738 61.5249 7.88824 61.5532 7.93817 61.5532C7.98811 61.5532 8.02897 61.5823 8.02897 61.6178C8.02897 61.6872 8.17762 61.8547 8.23924 61.8547C8.25976 61.8547 8.34468 61.9225 8.4279 62.0054C8.51113 62.0882 8.61881 62.1561 8.66724 62.1561C8.71566 62.1561 8.7553 62.1832 8.7553 62.2163C8.7553 62.2495 8.79616 62.2766 8.84609 62.2766C8.89603 62.2766 8.93688 62.3001 8.93688 62.3287C8.93688 62.3885 9.40621 62.578 9.55426 62.578C9.60861 62.578 9.66218 62.5988 9.67332 62.6241C9.70642 62.6997 10.3527 62.8794 10.5916 62.8794C10.7135 62.8794 10.8132 62.9066 10.8132 62.9397C10.8132 62.9767 11.1058 63 11.5698 63C12.0339 63 12.3264 62.9767 12.3264 62.9397C12.3264 62.9066 12.4422 62.8788 12.5837 62.878C12.7252 62.8772 12.9499 62.8479 13.083 62.8128C13.2162 62.7777 13.4 62.7345 13.4916 62.7169C13.5832 62.6993 13.658 62.6609 13.658 62.6315C13.658 62.6021 13.7517 62.578 13.8663 62.578C13.9809 62.578 14.0914 62.5509 14.112 62.5177C14.1326 62.4846 14.2031 62.4575 14.2688 62.4575C14.3344 62.4575 14.4038 62.4168 14.423 62.367C14.4428 62.3155 14.5331 62.2766 14.633 62.2766C14.7293 62.2766 14.8081 62.2524 14.8081 62.2229C14.8081 62.1933 14.8761 62.1521 14.9594 62.1313C15.0426 62.1105 15.1107 62.0668 15.1107 62.0343C15.1107 62.0018 15.1515 61.9752 15.2015 61.9752C15.2514 61.9752 15.2923 61.9481 15.2923 61.9149C15.2923 61.8818 15.3604 61.8547 15.4436 61.8547C15.5268 61.8547 15.5949 61.8281 15.5949 61.7955C15.5949 61.763 15.6578 61.7206 15.7346 61.7015C15.8114 61.6822 15.9242 61.6004 15.9852 61.5195C16.0462 61.4386 16.1349 61.3724 16.1825 61.3724C16.23 61.3724 16.3588 61.2775 16.4686 61.1614C16.5786 61.0454 16.6876 60.9504 16.711 60.9504C16.7768 60.9504 16.9265 60.7859 16.9265 60.7136C16.9265 60.6781 16.9547 60.649 16.9892 60.649C17.0623 60.649 17.1622 60.5607 17.8925 59.8503C18.1907 59.5602 18.4631 59.3228 18.4978 59.3228C18.5324 59.3228 18.5608 59.2944 18.5608 59.2597C18.5608 59.1772 19.4435 58.298 19.5263 58.298C19.5612 58.298 19.5897 58.269 19.5897 58.2335C19.5897 58.15 19.7437 57.9966 19.8275 57.9966C19.8632 57.9966 19.8924 57.9676 19.8924 57.9321C19.8924 57.8486 20.0464 57.6952 20.1302 57.6952C20.1658 57.6952 20.195 57.6668 20.195 57.6321C20.195 57.5496 21.0777 56.6704 21.1605 56.6704C21.1954 56.6704 21.224 56.6414 21.224 56.6059C21.224 56.5224 21.378 56.369 21.4618 56.369C21.4974 56.369 21.5266 56.34 21.5266 56.3045C21.5266 56.221 21.6806 56.0676 21.7644 56.0676C21.8001 56.0676 21.8293 56.0392 21.8293 56.0045C21.8293 55.922 22.712 55.0429 22.7948 55.0429C22.8297 55.0429 22.8582 55.0138 22.8582 54.9783C22.8582 54.8948 23.0122 54.7414 23.096 54.7414C23.1317 54.7414 23.1609 54.7124 23.1609 54.6769C23.1609 54.5934 23.3148 54.44 23.3987 54.44C23.4343 54.44 23.4635 54.411 23.4635 54.3755C23.4635 54.3052 23.6125 54.1386 23.6754 54.1386C23.7258 54.1386 23.8872 53.9779 23.8872 53.9276C23.8872 53.8651 24.0544 53.7167 24.125 53.7167C24.1607 53.7167 24.1898 53.6876 24.1898 53.6521C24.1898 53.5686 24.3438 53.4153 24.4276 53.4153C24.4633 53.4153 24.4925 53.3862 24.4925 53.3507C24.4925 53.2672 24.6465 53.1138 24.7303 53.1138C24.7659 53.1138 24.7951 53.0848 24.7951 53.0493C24.7951 52.9658 24.9491 52.8124 25.0329 52.8124C25.0686 52.8124 25.0977 52.7841 25.0977 52.7494C25.0977 52.6676 25.376 52.3905 25.4582 52.3905C25.493 52.3905 25.5214 52.3498 25.5214 52.3C25.5214 52.2503 25.5506 52.2096 25.5863 52.2096C25.6568 52.2096 25.8241 52.0612 25.8241 51.9986C25.8241 51.9361 25.9913 51.7877 26.0619 51.7877C26.0975 51.7877 26.1267 51.7586 26.1267 51.7231C26.1267 51.6396 26.2807 51.4862 26.3645 51.4862C26.4002 51.4862 26.4294 51.4437 26.4294 51.3918C26.4294 51.2737 26.6361 51.3281 26.8136 51.4929C26.8804 51.5548 26.9846 51.6212 27.0453 51.6403C27.106 51.6595 27.1557 51.7005 27.1557 51.7314C27.1557 51.7623 27.1841 51.7877 27.2189 51.7877C27.2537 51.7877 27.3503 51.8555 27.4336 51.9384C27.5168 52.0212 27.6146 52.0891 27.6509 52.0891C27.6871 52.0891 27.7799 52.1569 27.8571 52.2398C27.9342 52.3226 28.0294 52.3905 28.0687 52.3905C28.108 52.3905 28.23 52.4854 28.3399 52.6015C28.4498 52.7175 28.596 52.8124 28.6648 52.8124C28.7357 52.8124 28.7899 52.8516 28.7899 52.9029C28.7899 52.9526 28.8308 52.9933 28.8807 52.9933C28.9307 52.9933 28.9715 53.0204 28.9715 53.0536C28.9715 53.0867 29.0136 53.1138 29.0652 53.1138C29.1167 53.1138 29.222 53.1817 29.2991 53.2645C29.3763 53.3474 29.4586 53.4153 29.4821 53.4153C29.5057 53.4153 29.5629 53.4492 29.6093 53.4906C29.7909 53.6528 29.8758 53.7167 29.9098 53.7167C29.9293 53.7167 30.0187 53.7845 30.1084 53.8674C30.1982 53.9502 30.306 54.0181 30.3479 54.0181C30.3899 54.0181 30.4242 54.0406 30.4242 54.0682C30.4242 54.0957 30.4923 54.1545 30.5755 54.1989C30.6587 54.2433 30.7268 54.3157 30.7268 54.3598C30.7268 54.4039 30.7832 54.44 30.8522 54.44C30.9862 54.44 31.1505 54.5705 31.1505 54.6769C31.1505 54.7124 31.2086 54.7414 31.2796 54.7414C31.3505 54.7414 31.4953 54.833 31.6011 54.9448C31.7071 55.0567 31.8533 55.167 31.9261 55.19C31.9989 55.213 32.0584 55.2571 32.0584 55.288C32.0584 55.3189 32.0869 55.3443 32.1217 55.3443C32.1565 55.3443 32.2531 55.4121 32.3363 55.495C32.4195 55.5778 32.5159 55.6457 32.5505 55.6457C32.585 55.6457 32.7058 55.7406 32.819 55.8566C32.9322 55.9727 33.0525 56.0676 33.0863 56.0676C33.1202 56.0676 33.3114 56.2304 33.5111 56.4293C33.7108 56.6283 33.9015 56.791 33.9348 56.791C33.9681 56.791 33.9953 56.8193 33.9953 56.8539C33.9953 56.8885 34.0634 56.99 34.1466 57.0793C34.2299 57.1687 34.298 57.2662 34.298 57.2959C34.298 57.3256 34.3661 57.4127 34.4493 57.4896C34.5325 57.5663 34.6006 57.6712 34.6006 57.7225C34.6006 57.7738 34.6278 57.8158 34.6611 57.8158C34.6944 57.8158 34.7225 57.8769 34.7236 57.9514C34.7246 58.026 34.7655 58.1398 34.8144 58.2041C34.888 58.301 34.9032 58.635 34.9032 60.1481C34.9032 61.326 34.9247 61.9752 34.9638 61.9752C34.9971 61.9752 35.0243 62.0733 35.0243 62.1932C35.0243 62.3706 35.0708 62.4548 35.2739 62.6453C35.4112 62.7741 35.5746 62.8794 35.6371 62.8794C35.6995 62.8794 35.7506 62.9066 35.7506 62.9397C35.7506 62.9765 36.0331 63 36.477 63C36.8764 63 37.2033 62.9788 37.2033 62.9529C37.2033 62.9271 37.285 62.8752 37.3849 62.8376C37.4847 62.8 37.5665 62.7263 37.5665 62.6737C37.5665 62.6211 37.5878 62.578 37.6139 62.578C37.709 62.578 37.8691 62.2224 37.8691 62.0111C37.8691 61.8919 37.8963 61.7944 37.9296 61.7944C37.9687 61.7944 37.9901 61.1212 37.9901 59.8955C37.9901 58.7298 38.0125 57.9966 38.048 57.9966C38.0797 57.9966 38.1236 57.9017 38.1455 57.7857C38.1673 57.6696 38.2094 57.5747 38.239 57.5747C38.2686 57.5747 38.2928 57.534 38.2928 57.4842C38.2928 57.4345 38.3171 57.3938 38.3468 57.3938C38.3764 57.3938 38.4178 57.326 38.4387 57.2431C38.4596 57.1602 38.5034 57.0924 38.5361 57.0924C38.5687 57.0924 38.5954 57.0634 38.5954 57.0279C38.5954 56.9923 38.6295 56.9254 38.6711 56.8792C38.8355 56.6967 38.8981 56.6137 38.8981 56.5783C38.8981 56.5293 39.0603 56.369 39.1099 56.369C39.1727 56.369 39.3218 56.2025 39.3218 56.1322C39.3218 56.0967 39.3509 56.0676 39.3866 56.0676C39.4572 56.0676 39.6244 55.9192 39.6244 55.8566C39.6244 55.7941 39.7916 55.6457 39.8622 55.6457C39.8979 55.6457 39.927 55.605 39.927 55.5552C39.927 55.5055 39.9562 55.4648 39.9919 55.4648C40.0276 55.4648 40.0947 55.4309 40.1411 55.3895C40.3251 55.2251 40.4078 55.1634 40.444 55.1634C40.4648 55.1634 40.5744 55.0685 40.6876 54.9524C40.8008 54.8364 40.9223 54.7414 40.9578 54.7414C40.9933 54.7414 41.0854 54.6736 41.1625 54.5907C41.2397 54.5079 41.3214 54.44 41.344 54.44C41.3667 54.44 41.4533 54.3722 41.5365 54.2893C41.6197 54.2064 41.7138 54.1386 41.7456 54.1386C41.7774 54.1386 41.9123 54.0301 42.0455 53.8975C42.1787 53.7649 42.3081 53.6563 42.333 53.6563C42.3579 53.6561 42.4737 53.5748 42.5902 53.4755C42.7068 53.3762 42.8226 53.2949 42.8475 53.2948C42.8724 53.2947 42.8929 53.254 42.8929 53.2043C42.8929 53.1541 42.9467 53.1138 43.0139 53.1138C43.0805 53.1138 43.135 53.0867 43.135 53.0536C43.135 53.0204 43.1759 52.9933 43.2258 52.9933C43.2757 52.9933 43.3166 52.9526 43.3166 52.9029C43.3166 52.8531 43.345 52.8124 43.3798 52.8124C43.4145 52.8124 43.5164 52.7446 43.6061 52.6617C43.6958 52.5788 43.8036 52.511 43.8456 52.511C43.8875 52.511 43.9219 52.4885 43.9219 52.4609C43.9219 52.4334 43.9899 52.3746 44.0732 52.3302C44.1564 52.2858 44.2245 52.2134 44.2245 52.1693C44.2245 52.1252 44.2752 52.0891 44.3371 52.0891C44.399 52.0891 44.5008 52.0212 44.5633 51.9384C44.6258 51.8555 44.6996 51.7877 44.7274 51.7877C44.7552 51.7877 44.8158 51.7538 44.8623 51.7123C45.0489 51.5456 45.1292 51.4862 45.1681 51.4862C45.1905 51.4862 45.2988 51.3913 45.4087 51.2753C45.5186 51.1592 45.631 51.0643 45.6586 51.0643C45.6861 51.0643 45.7821 50.9965 45.8719 50.9136C45.9616 50.8307 46.0519 50.7629 46.0726 50.7629C46.0933 50.7629 46.1889 50.6883 46.2852 50.5971C46.5256 50.3694 46.6346 50.2806 46.6739 50.2806C46.6922 50.2806 46.7927 50.1992 46.8972 50.0998C47.0017 50.0003 47.1083 49.9189 47.1341 49.9189C47.16 49.9189 47.2627 49.8375 47.3626 49.7381C47.4625 49.6386 47.5611 49.5572 47.5819 49.5572C47.6026 49.5572 47.6851 49.4962 47.7652 49.4216C48.008 49.1955 48.0903 49.1353 48.1562 49.1353C48.1909 49.1353 48.2193 49.0946 48.2193 49.0448C48.2193 48.9951 48.2488 48.9544 48.2849 48.9544C48.3209 48.9544 48.443 48.8595 48.5562 48.7434C48.6693 48.6274 48.7897 48.5325 48.8235 48.5325C48.8574 48.5325 49.0485 48.3697 49.2483 48.1708C49.448 47.9718 49.627 47.8091 49.646 47.8091C49.7054 47.8091 49.8535 47.6401 49.8535 47.5722C49.8535 47.5367 49.8932 47.5077 49.9416 47.5077C49.99 47.5077 50.0977 47.4399 50.1809 47.357C50.2642 47.2741 50.3608 47.2063 50.3956 47.2063C50.4304 47.2063 50.4588 47.1772 50.4588 47.1417C50.4588 47.0714 50.6078 46.9049 50.6707 46.9049C50.7335 46.9049 50.8825 46.7383 50.8825 46.668C50.8825 46.6325 50.9117 46.6035 50.9473 46.6035C51.0312 46.6035 51.1852 46.4501 51.1852 46.3666C51.1852 46.3311 51.2142 46.302 51.2497 46.302C51.3135 46.302 53.122 44.5198 53.122 44.4571C53.122 44.3996 53.293 44.2525 53.3599 44.2525C53.3955 44.2525 53.4247 44.2234 53.4247 44.1879C53.4247 44.1523 53.4588 44.0855 53.5003 44.0393C53.673 43.8475 53.7273 43.7728 53.7273 43.7268C53.7273 43.7001 53.7954 43.6274 53.8786 43.5651C53.9619 43.5029 54.0299 43.4153 54.0299 43.3706C54.0299 43.2912 54.1353 43.1409 54.3477 42.9172C54.406 42.8559 54.4536 42.7749 54.4536 42.7373C54.4536 42.6996 54.5217 42.606 54.605 42.5291C54.6882 42.4524 54.7563 42.3475 54.7563 42.2962C54.7563 42.2449 54.7805 42.2029 54.8103 42.2029C54.8399 42.2029 54.8813 42.1351 54.9022 42.0522C54.9231 41.9693 54.9669 41.9015 54.9995 41.9015C55.0322 41.9015 55.0589 41.8608 55.0589 41.8111C55.0589 41.7613 55.0856 41.7207 55.1183 41.7207C55.1509 41.7207 55.1947 41.6528 55.2156 41.57C55.2365 41.4871 55.2779 41.4192 55.3076 41.4192C55.3373 41.4192 55.3616 41.3673 55.3616 41.3037C55.3616 41.2402 55.382 41.1791 55.407 41.1681C55.4727 41.1389 55.6642 40.7615 55.6642 40.6608C55.6642 40.6138 55.6914 40.5753 55.7247 40.5753C55.758 40.5753 55.7852 40.5075 55.7852 40.4246C55.7852 40.3417 55.8095 40.2739 55.8392 40.2739C55.8689 40.2739 55.9103 40.2061 55.9312 40.1232C55.9521 40.0403 55.9959 39.9725 56.0285 39.9725C56.0612 39.9725 56.0879 39.9287 56.0879 39.8751C56.0879 39.7311 56.2904 39.1888 56.3442 39.1888C56.3697 39.1888 56.3905 39.0939 56.3905 38.9778C56.3905 38.8618 56.4178 38.7669 56.451 38.7669C56.4843 38.7669 56.5116 38.6739 56.5116 38.5602C56.5116 38.4465 56.5524 38.3128 56.6024 38.2631C56.6523 38.2134 56.6932 38.0758 56.6932 37.9573C56.6932 37.839 56.717 37.7421 56.7462 37.7421C56.7754 37.7421 56.8121 37.5875 56.8278 37.3985C56.8436 37.2096 56.8878 37.0445 56.9261 37.0318C56.9697 37.0173 56.9958 36.8526 56.9958 36.5917C56.9958 36.3624 57.0203 36.1748 57.0501 36.1748C57.08 36.1748 57.1196 35.9509 57.1381 35.6774C57.1566 35.4039 57.1988 34.9902 57.232 34.7581C57.3102 34.2102 57.3096 32.4062 57.2309 31.8646C57.1973 31.6326 57.1553 31.1646 57.1378 30.8248C57.1202 30.4849 57.0811 30.2069 57.0508 30.2069C57.0206 30.2069 56.9958 30.0224 56.9958 29.797C56.9958 29.5691 56.965 29.3564 56.9264 29.3179C56.8882 29.28 56.8438 29.0439 56.8277 28.7935C56.8115 28.5431 56.7746 28.3382 56.7457 28.3382C56.7168 28.3382 56.6932 28.1735 56.6932 27.9722C56.6932 27.7272 56.6631 27.5763 56.6024 27.5158C56.5462 27.4599 56.5116 27.3119 56.5116 27.1283C56.5116 26.9648 56.4843 26.8311 56.451 26.8311C56.4175 26.8311 56.3905 26.6721 56.3905 26.4745C56.3905 26.2591 56.3629 26.1087 56.3209 26.0947C56.2825 26.082 56.2382 25.9164 56.2224 25.7268C56.2067 25.5373 56.17 25.3675 56.1408 25.3496C56.072 25.3072 56.0715 23.774 56.1404 23.7316C56.1692 23.7138 56.2074 23.5707 56.2252 23.4135C56.243 23.2564 56.2875 23.1179 56.3241 23.1057C56.3606 23.0936 56.3905 22.991 56.3905 22.8777C56.3905 22.7644 56.4178 22.6717 56.451 22.6717C56.4843 22.6717 56.5116 22.6058 56.5116 22.5253C56.5116 22.4448 56.5524 22.3382 56.6024 22.2885C56.6523 22.2388 56.6932 22.1531 56.6932 22.0981C56.6932 21.9597 57.3375 21.3455 57.4827 21.3455C57.5478 21.3455 57.6011 21.3184 57.6011 21.2852C57.6011 21.2521 57.6487 21.2241 57.707 21.223C57.7653 21.222 57.8658 21.1813 57.9304 21.1326C57.995 21.084 58.138 21.0441 58.2482 21.0441C58.3583 21.0441 58.4485 21.0195 58.4485 20.9895C58.4485 20.9594 58.5846 20.9162 58.7511 20.8934C58.9175 20.8706 59.0537 20.8274 59.0537 20.7973C59.0537 20.7673 59.1899 20.7427 59.3564 20.7427C59.5228 20.7427 59.659 20.7156 59.659 20.6824C59.659 20.6493 59.7612 20.6212 59.886 20.62C60.0108 20.6188 60.1811 20.5791 60.2643 20.5317C60.3475 20.4843 60.545 20.4446 60.7031 20.4434C60.8612 20.4423 60.9906 20.4142 60.9906 20.381C60.9906 20.3479 61.0792 20.3199 61.1873 20.3188C61.2955 20.3178 61.4369 20.2771 61.5015 20.2284C61.5662 20.1797 61.7091 20.1399 61.8193 20.1399C61.9294 20.1399 62.0196 20.1128 62.0196 20.0796C62.0196 20.0465 62.1421 20.0193 62.2919 20.0193C62.4418 20.0193 62.5643 19.9925 62.5643 19.9598C62.5643 19.927 62.6733 19.8829 62.8064 19.8616C62.9396 19.8404 63.0485 19.7994 63.0485 19.7705C63.0485 19.7416 63.1166 19.7179 63.1999 19.7179C63.2831 19.7179 63.3512 19.6908 63.3512 19.6576C63.3512 19.6245 63.4173 19.5974 63.4982 19.5974C63.579 19.5974 63.686 19.5567 63.736 19.5069C63.7859 19.4572 63.8559 19.4165 63.8916 19.4165C63.9273 19.4165 63.9565 19.3487 63.9565 19.2658C63.9565 19.1453 63.9262 19.1151 63.8051 19.1151C63.7219 19.1151 63.6538 19.088 63.6538 19.0548C63.6538 19.0217 63.5985 18.9946 63.5309 18.9946C63.4632 18.9946 63.3922 18.9539 63.3731 18.9041C63.3539 18.8544 63.273 18.8137 63.1934 18.8137C63.1137 18.8137 63.0485 18.7866 63.0485 18.7534C63.0485 18.7203 62.995 18.6931 62.9296 18.6931C62.7969 18.6931 62.3637 18.5074 62.3323 18.437C62.3212 18.4121 62.2191 18.3917 62.1053 18.3917C61.9916 18.3917 61.8985 18.3649 61.8985 18.3322C61.8985 18.2994 61.7896 18.2553 61.6564 18.234C61.5233 18.2128 61.4143 18.1718 61.4143 18.1429C61.4143 18.114 61.319 18.0903 61.2025 18.0903C61.0859 18.0903 60.9906 18.0632 60.9906 18.0301C60.9906 17.9969 60.9277 17.9698 60.8509 17.9698C60.774 17.9698 60.6583 17.9299 60.5936 17.8813C60.529 17.8326 60.3876 17.7919 60.2794 17.7909C60.1712 17.7898 60.0827 17.7618 60.0827 17.7286C60.0827 17.6955 59.999 17.6684 59.8968 17.6684C59.7945 17.6684 59.67 17.6277 59.6201 17.5779C59.5702 17.5282 59.4495 17.4875 59.3521 17.4875C59.2546 17.4875 59.1748 17.4604 59.1748 17.4272C59.1748 17.3941 59.0999 17.3661 59.0083 17.365C58.9168 17.364 58.789 17.3233 58.7244 17.2746C58.6598 17.226 58.544 17.1861 58.4672 17.1861C58.3903 17.1861 58.3274 17.159 58.3274 17.1258C58.3274 17.0927 58.2593 17.0655 58.1761 17.0655C58.0929 17.0655 58.0248 17.0384 58.0248 17.0053C58.0248 16.9721 57.9567 16.945 57.8734 16.945C57.7793 16.945 57.7221 16.9108 57.7221 16.8546C57.7221 16.8048 57.693 16.7641 57.6573 16.7641C57.5735 16.7641 57.4195 16.6108 57.4195 16.5273C57.4195 16.4918 57.3923 16.4627 57.359 16.4627C57.3257 16.4627 57.2984 16.4001 57.2984 16.3235C57.2984 16.247 57.2584 16.1317 57.2096 16.0673C57.1607 16.003 57.1198 15.8622 57.1188 15.7544C57.1177 15.6466 57.0896 15.5585 57.0563 15.5585C57.023 15.5585 56.9958 15.4926 56.9958 15.4121C56.9958 15.3316 56.9549 15.225 56.905 15.1753C56.8551 15.1256 56.8142 15.0287 56.8142 14.96C56.8142 14.8913 56.787 14.8351 56.7537 14.8351C56.7204 14.8351 56.6932 14.7673 56.6932 14.6844C56.6932 14.5906 56.6588 14.5337 56.6024 14.5337C56.5519 14.5337 56.5116 14.4801 56.5116 14.4132C56.5116 14.3469 56.4843 14.2926 56.451 14.2926C56.4178 14.2926 56.3905 14.25 56.3905 14.1979C56.3905 14.1458 56.3565 14.0653 56.3149 14.0191C56.1352 13.8196 56.0879 13.7515 56.0879 13.6923C56.0879 13.6578 56.0402 13.5794 55.982 13.518C55.801 13.3276 55.6642 13.1479 55.6642 13.1007C55.6642 13.0759 55.5961 12.9824 55.5129 12.893C55.4296 12.8037 55.3616 12.7023 55.3616 12.6677C55.3616 12.6331 55.3324 12.6047 55.2967 12.6047C55.2262 12.6047 55.0589 12.4563 55.0589 12.3937C55.0589 12.3448 54.8982 12.1828 54.8496 12.1828C54.8296 12.1828 54.6734 12.0471 54.5025 11.8813C54.3316 11.7156 54.1703 11.5799 54.144 11.5799C54.1178 11.5799 54.0037 11.485 53.8906 11.369C53.7774 11.2529 53.6652 11.158 53.6412 11.158C53.6172 11.158 53.5597 11.1241 53.5132 11.0826C53.3129 10.9037 53.2445 10.8566 53.1851 10.8566C53.1504 10.8566 53.122 10.8294 53.122 10.7963C53.122 10.7631 53.0539 10.736 52.9707 10.736C52.8765 10.736 52.8194 10.7018 52.8194 10.6456C52.8194 10.5893 52.7623 10.5552 52.6681 10.5552C52.5849 10.5552 52.5168 10.528 52.5168 10.4949C52.5168 10.4617 52.4691 10.4337 52.4108 10.4327C52.3526 10.4316 52.252 10.3909 52.1874 10.3422C52.1228 10.2936 52.0071 10.2537 51.9302 10.2537C51.8533 10.2537 51.7904 10.2266 51.7904 10.1935C51.7904 10.1603 51.734 10.1332 51.6651 10.1332C51.5961 10.1332 51.4988 10.0925 51.4489 10.0428C51.3989 9.99303 51.2647 9.95234 51.1506 9.95234C51.0364 9.95234 50.9431 9.92521 50.9431 9.89206C50.9431 9.8589 50.8091 9.83178 50.6454 9.83178C50.4717 9.83178 50.338 9.80236 50.3242 9.76113C50.311 9.72146 50.1362 9.6786 49.9258 9.66347C49.7196 9.64858 49.5509 9.61259 49.5509 9.58342C49.5509 9.55424 49.1832 9.53037 48.7338 9.53037C48.2294 9.53037 47.9167 9.50728 47.9167 9.47009C47.9167 9.43693 47.7941 9.40981 47.6443 9.40981C47.4945 9.40981 47.3719 9.43693 47.3719 9.47009C47.3719 9.5068 47.0995 9.53037 46.6759 9.53037C46.293 9.53037 45.9798 9.55412 45.9798 9.58317C45.9798 9.61223 45.8245 9.64882 45.6348 9.66449C45.4451 9.68017 45.2794 9.72423 45.2666 9.76239C45.2538 9.80055 45.1367 9.83178 45.0063 9.83178C44.876 9.83178 44.7692 9.8589 44.7692 9.89206C44.7692 9.92521 44.6758 9.95234 44.5617 9.95234C44.4476 9.95234 44.3133 9.99303 44.2634 10.0428C44.2135 10.0925 44.1162 10.1332 44.0472 10.1332C43.9783 10.1332 43.9219 10.1603 43.9219 10.1935C43.9219 10.2266 43.8538 10.2537 43.7705 10.2537C43.6873 10.2537 43.6192 10.2803 43.6192 10.3129C43.6192 10.3454 43.5511 10.389 43.4679 10.4098C43.3847 10.4306 43.3166 10.4718 43.3166 10.5014C43.3166 10.531 43.2485 10.5552 43.1653 10.5552C43.082 10.5552 43.0139 10.5817 43.0139 10.6143C43.0139 10.6468 42.9458 10.6904 42.8626 10.7112C42.7794 10.732 42.7113 10.7733 42.7113 10.8028C42.7113 10.8324 42.6568 10.8566 42.5902 10.8566C42.5237 10.8566 42.4692 10.8841 42.4692 10.9178C42.4692 10.9515 42.3679 11.0261 42.2441 11.0836C42.1203 11.1411 41.916 11.2899 41.7901 11.4142C41.6642 11.5385 41.5371 11.6402 41.5075 11.6402C41.4779 11.6402 41.3295 11.7623 41.1775 11.9115C41.0256 12.0607 40.8843 12.1828 40.8638 12.1828C40.8144 12.1828 40.6534 12.3442 40.6534 12.3937C40.6534 12.4563 40.4861 12.6047 40.4156 12.6047C40.3799 12.6047 40.3507 12.6303 40.3507 12.6614C40.3507 12.6927 40.2145 12.8597 40.0481 13.0325C39.8816 13.2054 39.7455 13.3834 39.7455 13.4279C39.7455 13.4725 39.7182 13.5089 39.6849 13.5089C39.6516 13.5089 39.6244 13.538 39.6244 13.5735C39.6244 13.6091 39.5904 13.6759 39.5487 13.7222C39.3691 13.9216 39.3218 13.9898 39.3218 14.0489C39.3218 14.0835 39.2951 14.1118 39.2624 14.1118C39.2298 14.1118 39.1859 14.1796 39.1651 14.2625C39.1442 14.3453 39.1028 14.4132 39.0731 14.4132C39.0434 14.4132 39.0191 14.4674 39.0191 14.5337C39.0191 14.6 38.9984 14.6543 38.9729 14.6543C38.9267 14.6543 38.8174 14.8329 38.7423 15.031C38.7204 15.089 38.6783 15.1365 38.6489 15.1365C38.6195 15.1365 38.5954 15.1934 38.5954 15.2629C38.5954 15.4025 38.4151 15.7394 38.3402 15.7394C38.3142 15.7394 38.2928 15.7859 38.2928 15.8429C38.2928 15.9942 38.1036 16.4627 38.0424 16.4627C38.0137 16.4627 37.9901 16.5712 37.9901 16.7039C37.9901 16.8365 37.9629 16.945 37.9296 16.945C37.8963 16.945 37.8682 17.0196 37.8672 17.1108C37.8661 17.202 37.8253 17.3292 37.7764 17.3935C37.7275 17.4579 37.6875 17.6139 37.6875 17.7402C37.6875 17.8664 37.6603 17.9698 37.627 17.9698C37.5937 17.9698 37.5665 18.0595 37.5665 18.1692C37.5665 18.279 37.5264 18.4213 37.4776 18.4857C37.4287 18.55 37.3878 18.718 37.3868 18.8589C37.3857 18.9998 37.3576 19.1151 37.3243 19.1151C37.2907 19.1151 37.2628 19.2823 37.2617 19.4919C37.2605 19.7041 37.2217 19.9345 37.173 20.0193C37.1243 20.1042 37.0856 20.3345 37.0843 20.5468C37.0832 20.7563 37.0554 20.9236 37.0217 20.9236C36.9869 20.9236 36.9612 21.1104 36.9612 21.3636C36.9612 21.6056 36.9311 21.8336 36.8943 21.8703C36.8576 21.9069 36.8128 22.17 36.795 22.455C36.7771 22.74 36.7392 22.9731 36.7105 22.9731C36.682 22.9731 36.6585 23.2037 36.6585 23.4855C36.6585 23.7673 36.6336 23.9979 36.6031 23.9979C36.5726 23.9979 36.5283 24.2963 36.5046 24.661C36.4808 25.0257 36.4377 25.3241 36.4086 25.3241C36.3796 25.3241 36.3559 25.6632 36.3559 26.0776C36.3559 26.5168 36.3317 26.8311 36.298 26.8311C36.2662 26.8311 36.2321 27.0257 36.2224 27.2634C36.2038 27.7128 36.1393 27.8125 35.9738 27.6477C35.9224 27.5964 35.8512 27.5545 35.8155 27.5545C35.7798 27.5545 35.7506 27.5279 35.7506 27.4954C35.7506 27.4629 35.6825 27.4192 35.5993 27.3984C35.5161 27.3776 35.448 27.3364 35.448 27.3069C35.448 27.2773 35.3935 27.2531 35.3269 27.2531C35.2603 27.2531 35.2059 27.226 35.2059 27.1928C35.2059 27.1597 35.165 27.1325 35.1151 27.1325C35.0651 27.1325 35.0243 27.0919 35.0243 27.0421C35.0243 26.9859 34.9671 26.9517 34.873 26.9517C34.7897 26.9517 34.7216 26.9246 34.7216 26.8914C34.7216 26.8583 34.6536 26.8311 34.5703 26.8311C34.4762 26.8311 34.419 26.797 34.419 26.7407C34.419 26.6845 34.3619 26.6503 34.2677 26.6503C34.1845 26.6503 34.1164 26.6232 34.1164 26.59C34.1164 26.5569 34.0483 26.5297 33.9651 26.5297C33.8818 26.5297 33.8137 26.5031 33.8137 26.4706C33.8137 26.4381 33.7456 26.3945 33.6624 26.3737C33.5792 26.3529 33.5111 26.3116 33.5111 26.2821C33.5111 26.2525 33.4274 26.2283 33.3252 26.2283C33.2229 26.2283 33.0984 26.1876 33.0485 26.1379C32.9986 26.0882 32.8915 26.0475 32.8107 26.0475C32.7299 26.0475 32.6637 26.0204 32.6637 25.9872C32.6637 25.954 32.5956 25.9269 32.5124 25.9269C32.4292 25.9269 32.3611 25.9059 32.3611 25.8803C32.3611 25.824 31.8834 25.689 31.5288 25.6452C31.3873 25.6277 31.2716 25.5925 31.2716 25.567C31.2716 25.5415 31.1558 25.5044 31.0143 25.4846C30.8728 25.4648 30.6345 25.4218 30.4847 25.389C30.3349 25.3562 30.0829 25.3282 29.9248 25.3268C29.7667 25.3253 29.6373 25.297 29.6373 25.2638C29.6373 25.2261 29.2641 25.2035 28.6386 25.2035C28.0132 25.2035 27.6399 25.2261 27.6399 25.2638C27.6399 25.297 27.5081 25.3241 27.3469 25.3241C27.1857 25.3241 26.9202 25.3645 26.7568 25.4139C26.5933 25.4632 26.3848 25.5039 26.2932 25.5043C26.2016 25.5046 26.1267 25.5321 26.1267 25.5652C26.1267 25.5984 26.0827 25.6255 26.0289 25.6255C25.8844 25.6255 25.3399 25.8272 25.3399 25.8808C25.3399 25.9062 25.2445 25.9269 25.128 25.9269C25.0115 25.9269 24.9162 25.954 24.9162 25.9872C24.9162 26.0204 24.8608 26.0475 24.7932 26.0475C24.7256 26.0475 24.6546 26.0882 24.6354 26.1379C24.6163 26.1876 24.5354 26.2283 24.4557 26.2283C24.3761 26.2283 24.3109 26.2555 24.3109 26.2886C24.3109 26.3218 24.2593 26.3489 24.1963 26.3489C24.1333 26.3489 24.0661 26.3896 24.0469 26.4393C24.0277 26.489 23.9567 26.5297 23.8891 26.5297C23.8215 26.5297 23.7661 26.5569 23.7661 26.59C23.7661 26.6232 23.737 26.6503 23.7013 26.6503C23.6656 26.6503 23.5985 26.6842 23.5521 26.7256C23.3702 26.8881 23.2855 26.9517 23.2513 26.9517C23.2317 26.9517 23.1525 27.0195 23.0754 27.1024C22.9982 27.1853 22.9055 27.2531 22.8692 27.2531C22.8033 27.2531 21.8293 28.1895 21.8293 28.2529C21.8293 28.2714 21.7952 28.3243 21.7536 28.3705C21.5892 28.5531 21.5266 28.6361 21.5266 28.6715C21.5266 28.7327 21.3583 28.8807 21.2888 28.8807C21.2532 28.8807 21.224 28.9386 21.224 29.0094C21.224 29.0802 21.1559 29.201 21.0727 29.2778C20.9894 29.3546 20.9213 29.4595 20.9213 29.5108C20.9213 29.5621 20.8971 29.6041 20.8674 29.6041C20.8377 29.6041 20.7963 29.6719 20.7754 29.7548C20.7545 29.8377 20.7107 29.9055 20.6781 29.9055C20.6454 29.9055 20.6187 29.9733 20.6187 30.0562C20.6187 30.1391 20.5915 30.2069 20.5582 30.2069C20.5249 30.2069 20.4976 30.2631 20.4976 30.3317C20.4976 30.4005 20.4568 30.4973 20.4069 30.5471C20.3569 30.5968 20.3161 30.7034 20.3161 30.7839C20.3161 30.8644 20.2888 30.9303 20.2555 30.9303C20.2222 30.9303 20.1942 30.9913 20.1931 31.0659C20.192 31.1405 20.1512 31.2542 20.1023 31.3186C20.0534 31.3829 20.0134 31.5253 20.0134 31.635C20.0134 31.7447 19.9862 31.8345 19.9529 31.8345C19.9196 31.8345 19.8924 31.9679 19.8924 32.1309C19.8924 32.2939 19.8653 32.4363 19.8322 32.4474C19.7992 32.4584 19.7542 32.7183 19.7323 33.0251C19.7105 33.3318 19.6695 33.5827 19.6412 33.5827C19.6129 33.5827 19.5897 33.8268 19.5897 34.1252C19.5897 34.4236 19.613 34.6677 19.6413 34.6677C19.6697 34.6677 19.7115 34.9322 19.7342 35.2555C19.7569 35.5787 19.8018 35.8523 19.8339 35.8633C19.866 35.8744 19.8924 36.0303 19.8924 36.2099C19.8924 36.3895 19.9196 36.5364 19.9529 36.5364C19.9862 36.5364 20.0134 36.6159 20.0134 36.713C20.0134 36.8101 20.0543 36.9302 20.1042 36.9799C20.1542 37.0297 20.195 37.1514 20.195 37.2505C20.195 37.3496 20.2155 37.4396 20.2404 37.4507C20.3111 37.482 20.4976 37.9134 20.4976 38.0455C20.4976 38.1107 20.5219 38.164 20.5516 38.164C20.5813 38.164 20.6227 38.2319 20.6436 38.3148C20.6645 38.3976 20.7083 38.4655 20.7409 38.4655C20.7736 38.4655 20.8003 38.5061 20.8003 38.5559C20.8003 38.6056 20.8275 38.6463 20.8608 38.6463C20.8941 38.6463 20.9213 38.7025 20.9213 38.7711C20.9213 38.8399 20.9554 38.9338 20.997 38.9801C21.1766 39.1796 21.224 39.2477 21.224 39.3069C21.224 39.3414 21.2482 39.3697 21.278 39.3697C21.3076 39.3697 21.349 39.4375 21.3699 39.5204C21.3908 39.6033 21.4346 39.6711 21.4672 39.6711C21.4999 39.6711 21.5266 39.7001 21.5266 39.7356C21.5266 39.7712 21.5607 39.8381 21.6023 39.8843C21.7652 40.0651 21.8293 40.1497 21.8293 40.1835C21.8293 40.203 21.8973 40.292 21.9806 40.3814C22.0638 40.4708 22.1319 40.5681 22.1319 40.5977C22.1319 40.6273 22.2272 40.741 22.3437 40.8505C22.4603 40.9599 22.5556 41.066 22.5556 41.0862C22.5556 41.1213 22.6184 41.2046 22.7826 41.3869C22.8242 41.4331 22.8582 41.5 22.8582 41.5355C22.8582 41.571 22.8874 41.6001 22.923 41.6001C22.9936 41.6001 23.1609 41.7485 23.1609 41.8111C23.1609 41.8736 23.3281 42.0221 23.3987 42.0221C23.4343 42.0221 23.4635 42.0511 23.4635 42.0866C23.4635 42.1701 23.6175 42.3235 23.7013 42.3235C23.737 42.3235 23.7661 42.3525 23.7661 42.388C23.7661 42.4715 23.9201 42.6249 24.004 42.6249C24.0396 42.6249 24.0688 42.6532 24.0688 42.6879C24.0688 42.7697 24.347 43.0468 24.4292 43.0468C24.464 43.0468 24.4925 43.0759 24.4925 43.1114C24.4925 43.1949 24.6465 43.3483 24.7303 43.3483C24.7659 43.3483 24.7951 43.3773 24.7951 43.4128C24.7951 43.4831 24.9441 43.6497 25.007 43.6497C25.0698 43.6497 25.2188 43.8162 25.2188 43.8865C25.2188 43.922 25.248 43.9511 25.2836 43.9511C25.3193 43.9511 25.3865 43.985 25.4329 44.0264C25.6162 44.1901 25.6995 44.2525 25.7351 44.2525C25.7965 44.2525 25.9451 44.4201 25.9451 44.4893C25.9451 44.5248 25.9722 44.5539 26.0052 44.5539C26.0384 44.5539 26.2314 44.7166 26.4343 44.9156C26.6371 45.1145 26.8293 45.2773 26.8612 45.2773C26.8932 45.2773 26.9825 45.3451 27.0596 45.428C27.1367 45.5108 27.2191 45.5787 27.2426 45.5787C27.3086 45.5787 27.4583 45.7431 27.4583 45.8155C27.4583 45.851 27.4875 45.8801 27.5232 45.8801C27.607 45.8801 27.761 46.0334 27.761 46.1169C27.761 46.1524 27.8154 46.1815 27.882 46.1815C27.9486 46.1815 28.0031 46.2086 28.0031 46.2418C28.0031 46.2749 28.0439 46.302 28.0939 46.302C28.1438 46.302 28.1847 46.3427 28.1847 46.3925C28.1847 46.4422 28.2142 46.4829 28.2502 46.4829C28.2863 46.4829 28.4138 46.5834 28.5336 46.7062C28.662 46.8379 28.7614 46.8998 28.7757 46.8569C28.7891 46.817 28.8261 46.7843 28.8581 46.7843C28.9247 46.7843 29.0029 46.7224 29.3342 46.4075C29.4651 46.2832 29.6004 46.1815 29.635 46.1815C29.6695 46.1815 29.6979 46.1524 29.6979 46.1169C29.6979 46.0466 29.8469 45.8801 29.9097 45.8801C29.9725 45.8801 30.1216 45.7135 30.1216 45.6432C30.1216 45.6077 30.1507 45.5787 30.1864 45.5787C30.2702 45.5787 30.4242 45.4253 30.4242 45.3418C30.4242 45.3063 30.4534 45.2773 30.489 45.2773C30.5728 45.2773 30.7268 45.1239 30.7268 45.0404C30.7268 45.0049 30.7553 44.9758 30.7903 44.9758C30.8251 44.9758 30.9873 44.847 31.1506 44.6895C31.5375 44.3163 31.6168 44.2525 31.6927 44.2525C31.7274 44.2525 31.7558 44.2234 31.7558 44.1879C31.7558 44.1176 31.9048 43.9511 31.9676 43.9511C32.0305 43.9511 32.1795 43.7845 32.1795 43.7142C32.1795 43.6787 32.2069 43.6497 32.2404 43.6497C32.274 43.6497 32.4917 43.4598 32.7242 43.2277C32.9568 42.9956 33.1745 42.8057 33.208 42.8057C33.2416 42.8057 33.269 42.7754 33.269 42.7383C33.269 42.6691 33.6294 42.3262 33.7041 42.3244C33.7269 42.3239 33.9782 42.0929 34.2625 41.8111C34.5467 41.5293 34.7955 41.2987 34.8153 41.2987C34.8759 41.2987 35.0243 41.1305 35.0243 41.0618C35.0243 41.0263 35.0535 40.9973 35.0891 40.9973C35.1729 40.9973 35.3269 40.8439 35.3269 40.7604C35.3269 40.7249 35.3554 40.6959 35.3902 40.6959C35.4724 40.6959 35.7506 40.4188 35.7506 40.3369C35.7506 40.3022 35.7798 40.2739 35.8155 40.2739C35.8993 40.2739 36.0533 40.1205 36.0533 40.0371C36.0533 40.0015 36.0824 39.9725 36.1181 39.9725C36.1538 39.9725 36.2219 39.9337 36.2694 39.8864C36.317 39.839 36.3559 39.7712 36.3559 39.7356C36.3559 39.7001 36.3851 39.6711 36.4207 39.6711C36.4867 39.6711 36.6585 39.5243 36.6585 39.4679C36.6585 39.4509 36.7947 39.2956 36.9612 39.1227C37.1276 38.9498 37.2638 38.7836 37.2638 38.7534C37.2638 38.7232 37.3591 38.6089 37.4757 38.4995C37.5922 38.39 37.6875 38.2814 37.6875 38.2581C37.6875 38.2348 37.7216 38.1779 37.7632 38.1317C37.9428 37.9322 37.9901 37.864 37.9901 37.8049C37.9901 37.7703 38.0112 37.7421 38.0369 37.7421C38.0627 37.7421 38.135 37.6471 38.1978 37.5311C38.2605 37.4151 38.3318 37.3201 38.3563 37.3201C38.3807 37.3201 38.4178 37.2523 38.4387 37.1694C38.4596 37.0865 38.5034 37.0187 38.5361 37.0187C38.5687 37.0187 38.5954 36.978 38.5954 36.9283C38.5954 36.8785 38.6227 36.8379 38.656 36.8379C38.6892 36.8379 38.7165 36.7993 38.7165 36.7523C38.7165 36.6517 38.9079 36.2742 38.9737 36.2451C38.9987 36.234 39.0191 36.1323 39.0191 36.0191C39.0191 35.9057 39.0451 35.8131 39.0769 35.8131C39.1087 35.8131 39.1526 35.7181 39.1744 35.6021C39.1963 35.486 39.2384 35.3911 39.268 35.3911C39.2976 35.3911 39.3218 35.2577 39.3218 35.0947C39.3218 34.9219 39.3513 34.7885 39.3926 34.7748C39.497 34.7402 39.5015 32.4717 39.3974 32.368C39.3558 32.3266 39.3218 32.1624 39.3218 32.0033C39.3218 31.8441 39.2945 31.7139 39.2612 31.7139C39.2279 31.7139 39.2007 31.6481 39.2007 31.5675C39.2007 31.487 39.1598 31.3805 39.1099 31.3307C39.06 31.281 39.0191 31.1706 39.0191 31.0853C39.0191 31 38.9919 30.9303 38.9586 30.9303C38.9253 30.9303 38.8981 30.8929 38.8981 30.8472C38.8981 30.8016 38.8572 30.7304 38.8073 30.6891C38.7573 30.6479 38.7165 30.5632 38.7165 30.501C38.7165 30.4387 38.6892 30.3877 38.656 30.3877C38.6227 30.3877 38.5954 30.3471 38.5954 30.2973C38.5954 30.2476 38.5687 30.2069 38.5361 30.2069C38.5034 30.2069 38.4596 30.1391 38.4387 30.0562C38.4178 29.9733 38.3823 29.9055 38.3598 29.9055C38.3373 29.9055 38.2673 29.8173 38.2042 29.7096C38.1412 29.6019 38.04 29.4698 37.9793 29.4162C37.8616 29.3121 37.8216 28.8807 37.9296 28.8807C37.9629 28.8807 37.9901 28.8228 37.9901 28.752C37.9901 28.6812 38.0582 28.5604 38.1415 28.4836C38.2247 28.4068 38.2928 28.312 38.2928 28.2728C38.2928 28.2337 38.3881 28.1122 38.5046 28.0027C38.6212 27.8933 38.7165 27.7748 38.7165 27.7394C38.7165 27.704 38.7447 27.6751 38.7792 27.6751C38.8138 27.6751 38.9575 27.5567 39.0987 27.4121C39.2397 27.2675 39.4158 27.1301 39.4898 27.1067C39.5638 27.0833 39.6244 27.0389 39.6244 27.0079C39.6244 26.977 39.6653 26.9517 39.7152 26.9517C39.7651 26.9517 39.806 26.9246 39.806 26.8914C39.806 26.8583 39.8605 26.8311 39.927 26.8311C39.9943 26.8311 40.0481 26.7909 40.0481 26.7407C40.0481 26.6845 40.1052 26.6503 40.1994 26.6503C40.2826 26.6503 40.3507 26.6261 40.3507 26.5965C40.3507 26.567 40.4188 26.5258 40.502 26.505C40.5853 26.4842 40.6534 26.4405 40.6534 26.408C40.6534 26.3755 40.7215 26.3489 40.8047 26.3489C40.8879 26.3489 40.956 26.3218 40.956 26.2886C40.956 26.2555 41.0241 26.2283 41.1073 26.2283C41.1905 26.2283 41.2586 26.2017 41.2586 26.1692C41.2586 26.1367 41.3267 26.0931 41.41 26.0723C41.4932 26.0515 41.5613 26.0102 41.5613 25.9807C41.5613 25.9511 41.6838 25.9269 41.8337 25.9269C41.9835 25.9269 42.106 25.9023 42.106 25.8723C42.106 25.8422 42.2422 25.799 42.4086 25.7762C42.575 25.7534 42.7264 25.7102 42.7451 25.6801C42.7637 25.6501 42.9952 25.6255 43.2596 25.6255C43.5397 25.6255 43.7403 25.6004 43.7403 25.5652C43.7403 25.5273 44.1337 25.5049 44.7995 25.5049C45.4653 25.5049 45.8587 25.5273 45.8587 25.5652C45.8587 25.5993 46.0326 25.6255 46.2592 25.6255C46.6329 25.6255 47.2553 25.7785 47.3013 25.8817C47.3124 25.9066 47.4009 25.9269 47.498 25.9269C47.5951 25.9269 47.6746 25.954 47.6746 25.9872C47.6746 26.0204 47.7257 26.0475 47.7882 26.0475C47.8507 26.0475 47.9357 26.0882 47.9772 26.1379C48.0187 26.1876 48.0901 26.2283 48.1359 26.2283C48.1818 26.2283 48.2193 26.2555 48.2193 26.2886C48.2193 26.3218 48.2874 26.3489 48.3706 26.3489C48.4648 26.3489 48.5219 26.3831 48.5219 26.4393C48.5219 26.4956 48.5791 26.5297 48.6733 26.5297C48.7565 26.5297 48.8246 26.5569 48.8246 26.59C48.8246 26.6232 48.8538 26.6503 48.8894 26.6503C48.9251 26.6503 48.9922 26.6842 49.0387 26.7256C49.2219 26.8894 49.3053 26.9517 49.3408 26.9517C49.3613 26.9517 49.4159 26.9856 49.4624 27.0271C49.649 27.1937 49.7293 27.2531 49.7682 27.2531C49.7906 27.2531 49.8989 27.3481 50.0088 27.4641C50.1187 27.5801 50.2331 27.6751 50.2631 27.6751C50.33 27.6751 50.7615 28.0988 50.7615 28.1645C50.7615 28.1905 50.8568 28.304 50.9733 28.4167C51.0898 28.5294 51.1852 28.6404 51.1852 28.6633C51.1852 28.7029 51.244 28.7821 51.4121 28.9689C51.4538 29.0151 51.4878 29.082 51.4878 29.1175C51.4878 29.1531 51.5145 29.1821 51.5472 29.1821C51.5798 29.1821 51.6236 29.2499 51.6445 29.3328C51.6654 29.4157 51.7068 29.4835 51.7364 29.4835C51.7662 29.4835 51.7904 29.5378 51.7904 29.6041C51.7904 29.6704 51.8177 29.7246 51.851 29.7246C51.8843 29.7246 51.9115 29.762 51.9115 29.8077C51.9115 29.8534 51.9523 29.9245 52.0023 29.9658C52.0522 30.0071 52.0931 30.0801 52.0931 30.1282C52.0931 30.1762 52.1339 30.2562 52.1839 30.3059C52.2338 30.3557 52.2747 30.4471 52.2747 30.509C52.2747 30.5711 52.3019 30.6385 52.3352 30.659C52.3685 30.6795 52.3957 30.7602 52.3957 30.8384C52.3957 30.9165 52.4162 30.9895 52.4411 31.0006C52.5091 31.0307 52.6983 31.6168 52.6983 31.7974C52.6983 31.8841 52.7232 31.9551 52.7535 31.9551C52.84 31.9551 52.8905 32.6152 52.8919 33.7635C52.8932 34.9108 52.8346 35.8131 52.7586 35.8131C52.7321 35.8131 52.6961 35.9283 52.6785 36.0693C52.6235 36.5092 52.4988 37.0187 52.4461 37.0187C52.4184 37.0187 52.3957 37.1136 52.3957 37.2297C52.3957 37.3457 52.372 37.4407 52.3429 37.4407C52.3139 37.4407 52.2727 37.5492 52.2514 37.6818C52.2301 37.8144 52.1858 37.9229 52.1529 37.9229C52.12 37.9229 52.0931 37.9907 52.0931 38.0736C52.0931 38.1565 52.0689 38.2243 52.0393 38.2243C52.0097 38.2243 51.9676 38.3193 51.9457 38.4353C51.9239 38.5514 51.88 38.6463 51.8482 38.6463C51.8165 38.6463 51.7904 38.7141 51.7904 38.797C51.7904 38.8799 51.7637 38.9477 51.7311 38.9477C51.6984 38.9477 51.6546 39.0155 51.6337 39.0984C51.6128 39.1813 51.5714 39.2491 51.5418 39.2491C51.5121 39.2491 51.4878 39.3034 51.4878 39.3697C51.4878 39.436 51.4635 39.4902 51.4338 39.4902C51.4041 39.4902 51.3627 39.5581 51.3419 39.6409C51.321 39.7238 51.2772 39.7916 51.2445 39.7916C51.2118 39.7916 51.1852 39.8323 51.1852 39.8821C51.1852 39.9318 51.1579 39.9725 51.1246 39.9725C51.0913 39.9725 51.0641 40.0276 51.0641 40.0949C51.0641 40.1623 51.0232 40.233 50.9733 40.2521C50.9234 40.2712 50.8825 40.3246 50.8825 40.3708C50.8825 40.417 50.8553 40.4547 50.822 40.4547C50.7887 40.4547 50.7615 40.509 50.7615 40.5753C50.7615 40.6423 50.7211 40.6959 50.6707 40.6959C50.6207 40.6959 50.5799 40.7366 50.5799 40.7863C50.5799 40.836 50.5545 40.8767 50.5234 40.8767C50.4924 40.8767 50.4507 40.9278 50.4308 40.9903C50.4109 41.0527 50.3137 41.1881 50.2149 41.2911C50.116 41.3941 50.0351 41.5058 50.0351 41.5393C50.0351 41.5727 49.9943 41.6001 49.9443 41.6001C49.8944 41.6001 49.8535 41.6282 49.8535 41.6625C49.8535 41.7247 49.7859 41.8058 49.3542 42.2605C49.2294 42.392 49.1272 42.5278 49.1272 42.5622C49.1272 42.5967 49.098 42.6249 49.0624 42.6249C49.0267 42.6249 48.9586 42.6636 48.9111 42.711C48.8635 42.7583 48.8246 42.8262 48.8246 42.8617C48.8246 42.8972 48.7954 42.9263 48.7598 42.9263C48.6759 42.9263 48.5219 43.0796 48.5219 43.1631C48.5219 43.1986 48.4928 43.2277 48.4571 43.2277C48.3865 43.2277 48.2193 43.3761 48.2193 43.4387C48.2193 43.4909 48.057 43.6497 48.0036 43.6497C47.98 43.6497 47.8977 43.7175 47.8206 43.8004C47.7434 43.8832 47.6382 43.9511 47.5867 43.9511C47.5351 43.9511 47.493 43.9801 47.493 44.0156C47.493 44.0845 47.3445 44.2525 47.2837 44.2525C47.2636 44.2525 47.1074 44.3881 46.9366 44.5539C46.7657 44.7197 46.5995 44.8553 46.5672 44.8553C46.5349 44.8553 46.4187 44.9502 46.3088 45.0663C46.1989 45.1823 46.0898 45.2773 46.0665 45.2773C46.043 45.2773 45.9608 45.3451 45.8837 45.428C45.8066 45.5108 45.7013 45.5787 45.6498 45.5787C45.5982 45.5787 45.5561 45.6077 45.5561 45.6432C45.5561 45.7156 45.4063 45.8801 45.3406 45.8801C45.3172 45.8801 45.2081 45.975 45.0982 46.0911C44.9884 46.2071 44.8759 46.302 44.8484 46.302C44.8208 46.302 44.7248 46.3699 44.635 46.4527C44.5453 46.5356 44.4552 46.6035 44.4346 46.6035C44.3731 46.6035 44.2245 46.771 44.2245 46.8403C44.2245 46.8758 44.1738 46.9049 44.1119 46.9049C44.05 46.9049 43.9482 46.9727 43.8857 47.0556C43.8232 47.1384 43.7494 47.2063 43.7216 47.2063C43.6938 47.2063 43.6331 47.2401 43.5867 47.2816C43.4068 47.4423 43.3204 47.5077 43.2878 47.5077C43.2692 47.5077 43.1613 47.6026 43.0482 47.7187C42.935 47.8347 42.8142 47.9296 42.7796 47.9296C42.7451 47.9296 42.6487 47.9975 42.5655 48.0803C42.4823 48.1632 42.3857 48.231 42.3509 48.231C42.3161 48.231 42.2876 48.2717 42.2876 48.3215C42.2876 48.3712 42.2592 48.4119 42.2244 48.4119C42.1896 48.4119 42.0955 48.473 42.0154 48.5475C41.7915 48.756 41.6912 48.8339 41.6466 48.8339C41.6242 48.8339 41.5159 48.9288 41.406 49.0448C41.2962 49.1609 41.1499 49.2558 41.0811 49.2558C41.0123 49.2558 40.956 49.2849 40.956 49.3204C40.956 49.3907 40.807 49.5572 40.7442 49.5572C40.7227 49.5572 40.6673 49.5912 40.6209 49.6326C40.439 49.7951 40.3544 49.8586 40.3201 49.8586C40.3005 49.8586 40.2213 49.9265 40.1442 50.0093C40.067 50.0922 39.9726 50.1601 39.9342 50.1601C39.8958 50.1601 39.7718 50.255 39.6587 50.371C39.5455 50.4871 39.4234 50.582 39.3873 50.582C39.3513 50.582 39.3218 50.6227 39.3218 50.6724C39.3218 50.7227 39.268 50.7629 39.2007 50.7629C39.1341 50.7629 39.0797 50.79 39.0797 50.8232C39.0797 50.8563 39.0388 50.8834 38.9889 50.8834C38.9389 50.8834 38.8981 50.9241 38.8981 50.9739C38.8981 51.0236 38.8696 51.0643 38.8348 51.0643C38.8 51.0643 38.7034 51.1321 38.6202 51.215C38.537 51.2979 38.441 51.3657 38.407 51.3657C38.373 51.3657 38.2553 51.4606 38.1454 51.5767C38.0355 51.6927 37.9264 51.7877 37.903 51.7877C37.8796 51.7877 37.8225 51.8215 37.7761 51.863C37.5928 52.0267 37.5094 52.0891 37.4739 52.0891C37.4125 52.0891 37.2638 52.2566 37.2638 52.3259C37.2638 52.3614 37.223 52.3905 37.173 52.3905C37.1231 52.3905 37.0822 52.4158 37.0822 52.4467C37.0822 52.4776 37.0287 52.5198 36.9632 52.5405C36.8977 52.5612 36.7196 52.6987 36.5674 52.846C36.4153 52.9933 36.2373 53.1138 36.172 53.1138C36.1067 53.1138 36.0533 53.1429 36.0533 53.1784C36.0533 53.2487 35.9042 53.4153 35.8414 53.4153C35.82 53.4153 35.7645 53.4492 35.7181 53.4906C35.5313 53.6575 35.4512 53.7167 35.4121 53.7167C35.3895 53.7167 35.3064 53.7862 35.2274 53.8711C35.1068 54.0006 35.0694 54.0128 34.9955 53.9465C34.8077 53.7778 34.7252 53.7167 34.6858 53.7167C34.6632 53.7167 34.5816 53.6488 34.5045 53.566C34.4274 53.4831 34.3221 53.4153 34.2706 53.4153C34.219 53.4153 34.1769 53.3881 34.1769 53.355C34.1769 53.3218 34.136 53.2947 34.0861 53.2947C34.0362 53.2947 33.9953 53.254 33.9953 53.2043C33.9953 53.1522 33.9406 53.1138 33.8663 53.1138C33.7953 53.1138 33.6506 53.0223 33.5447 52.9105C33.4388 52.7986 33.2925 52.6883 33.2198 52.6653C33.147 52.6423 33.0874 52.5982 33.0874 52.5673C33.0874 52.5363 33.0465 52.511 32.9966 52.511C32.9467 52.511 32.9058 52.4839 32.9058 52.4507C32.9058 52.4176 32.8637 52.3905 32.8121 52.3905C32.7606 52.3905 32.6554 52.3226 32.5782 52.2398C32.5011 52.1569 32.4136 52.0891 32.3838 52.0891C32.354 52.0891 32.2561 52.0212 32.1664 51.9384C32.0767 51.8555 31.9865 51.7877 31.966 51.7877C31.9455 51.7877 31.8908 51.7538 31.8444 51.7123C31.6628 51.5501 31.5779 51.4862 31.5439 51.4862C31.5243 51.4862 31.4349 51.4184 31.3452 51.3355C31.2555 51.2527 31.1576 51.1848 31.1278 51.1848C31.098 51.1848 31.0105 51.117 30.9333 51.0341C30.8562 50.9512 30.7646 50.8834 30.7297 50.8834C30.6948 50.8834 30.6663 50.8563 30.6663 50.8232C30.6663 50.79 30.6118 50.7629 30.5452 50.7629C30.478 50.7629 30.4242 50.7227 30.4242 50.6724C30.4242 50.6227 30.3893 50.582 30.3468 50.582C30.3042 50.582 30.2301 50.5278 30.1821 50.4615C30.1341 50.3951 30.0612 50.3409 30.0202 50.3409C29.9791 50.3409 29.8807 50.2763 29.8014 50.1974C29.7222 50.1185 29.5984 50.0353 29.5263 50.0125C29.4542 49.9897 29.3952 49.9458 29.3952 49.9149C29.3952 49.884 29.3668 49.8586 29.332 49.8586C29.2972 49.8586 29.2006 49.7908 29.1173 49.7079C29.0341 49.6251 28.9364 49.5572 28.9 49.5572C28.8638 49.5572 28.771 49.4894 28.6938 49.4065C28.6167 49.3237 28.5115 49.2558 28.4599 49.2558C28.4084 49.2558 28.3662 49.2287 28.3662 49.1956C28.3662 49.1624 28.3254 49.1353 28.2755 49.1353C28.2255 49.1353 28.1847 49.1062 28.1847 49.0707C28.1847 48.9643 28.0203 48.8339 27.8863 48.8339C27.8153 48.8339 27.761 48.7947 27.761 48.7434C27.761 48.6937 27.7261 48.653 27.6836 48.653C27.6409 48.653 27.5669 48.5988 27.5189 48.5325C27.4709 48.4661 27.4033 48.4119 27.3687 48.4119C27.3341 48.4119 27.2323 48.3441 27.1426 48.2612C27.0528 48.1783 26.951 48.1105 26.9162 48.1105C26.8815 48.1105 26.8531 48.0698 26.8531 48.0201C26.8531 47.9703 26.8122 47.9296 26.7623 47.9296C26.7123 47.9296 26.6715 47.9025 26.6715 47.8694C26.6715 47.8362 26.617 47.8091 26.5504 47.8091C26.4832 47.8091 26.4294 47.7689 26.4294 47.7187C26.4294 47.6689 26.4009 47.6282 26.3661 47.6282C26.3313 47.6282 26.2347 47.5604 26.1515 47.4775C26.0683 47.3946 25.9719 47.3268 25.9373 47.3268C25.9028 47.3268 25.782 47.2319 25.6688 47.1158C25.5556 46.9998 25.434 46.9049 25.3986 46.9049C25.3631 46.9049 25.271 46.837 25.1939 46.7542C25.1167 46.6713 25.035 46.6035 25.0124 46.6035C24.9897 46.6035 24.9031 46.5356 24.8199 46.4527C24.7366 46.3699 24.6436 46.302 24.6131 46.302C24.5826 46.302 24.4315 46.18 24.2774 46.0308C24.1233 45.8816 23.9724 45.7595 23.9422 45.7595C23.9119 45.7595 23.8872 45.7188 23.8872 45.6691C23.8872 45.6194 23.8588 45.5787 23.8241 45.5787C23.7482 45.5787 23.6689 45.5148 23.282 45.1416C23.1187 44.9842 22.9565 44.8553 22.9217 44.8553C22.8867 44.8553 22.8582 44.8146 22.8582 44.7649C22.8582 44.7151 22.8297 44.6744 22.7948 44.6744C22.7122 44.6744 22.1319 44.0965 22.1319 44.0142C22.1319 43.9795 22.1027 43.9511 22.0671 43.9511C21.9832 43.9511 21.8293 43.7977 21.8293 43.7142C21.8293 43.6787 21.8001 43.6497 21.7644 43.6497C21.6939 43.6497 21.5266 43.5012 21.5266 43.4387C21.5266 43.3761 21.3594 43.2277 21.2888 43.2277C21.2532 43.2277 21.224 43.1986 21.224 43.1631C21.224 43.1276 21.19 43.0607 21.1483 43.0145C20.9842 42.8322 20.9213 42.7489 20.9213 42.7138C20.9213 42.6936 20.826 42.5875 20.7095 42.4781C20.593 42.3686 20.4976 42.2549 20.4976 42.2253C20.4976 42.1957 20.4296 42.0984 20.3463 42.009C20.2631 41.9196 20.195 41.8298 20.195 41.8094C20.195 41.789 20.161 41.7345 20.1194 41.6883C19.9397 41.4888 19.8924 41.4206 19.8924 41.3615C19.8924 41.327 19.8681 41.2987 19.8384 41.2987C19.8087 41.2987 19.7673 41.2309 19.7464 41.148C19.7256 41.0651 19.6817 40.9973 19.6491 40.9973C19.6164 40.9973 19.5897 40.9566 19.5897 40.9069C19.5897 40.8571 19.5625 40.8164 19.5292 40.8164C19.4959 40.8164 19.4687 40.7651 19.4687 40.7023C19.4687 40.6396 19.4278 40.5726 19.3779 40.5535C19.3279 40.5344 19.2871 40.4637 19.2871 40.3963C19.2871 40.329 19.2628 40.2739 19.2331 40.2739C19.2034 40.2739 19.162 40.2061 19.1412 40.1232C19.1203 40.0403 19.0765 39.9725 19.0438 39.9725C19.0111 39.9725 18.9845 39.9047 18.9845 39.8218C18.9845 39.7389 18.9602 39.6711 18.9305 39.6711C18.9008 39.6711 18.8594 39.6033 18.8385 39.5204C18.8176 39.4375 18.7738 39.3697 18.7412 39.3697C18.7085 39.3697 18.6818 39.3019 18.6818 39.219C18.6818 39.1361 18.6546 39.0683 18.6213 39.0683C18.588 39.0683 18.5608 39.0121 18.5608 38.9434C18.5608 38.8747 18.5199 38.7778 18.47 38.7281C18.42 38.6784 18.3792 38.5718 18.3792 38.4913C18.3792 38.4108 18.3519 38.3449 18.3187 38.3449C18.2854 38.3449 18.2581 38.2771 18.2581 38.1942C18.2581 38.1113 18.2344 38.0435 18.2054 38.0435C18.1763 38.0435 18.1351 37.935 18.1138 37.8024C18.0925 37.6697 18.0482 37.5612 18.0153 37.5612C17.9824 37.5612 17.9555 37.4663 17.9555 37.3502C17.9555 37.2342 17.9283 37.1393 17.895 37.1393C17.8617 37.1393 17.8341 37.0647 17.8338 36.9735C17.8334 36.8823 17.7925 36.6746 17.743 36.5118C17.6934 36.349 17.6528 36.0981 17.6528 35.9542C17.6528 35.8102 17.6297 35.6925 17.6015 35.6925C17.5732 35.6925 17.5342 35.4144 17.5149 35.0746C17.4956 34.7348 17.4506 34.3804 17.415 34.2871C17.3697 34.1684 17.3502 30.1581 17.3502 20.9498C17.3502 12.2116 17.3299 7.78221 17.2897 7.78221C17.2564 7.78221 17.2292 7.72892 17.2292 7.66369C17.2292 7.48381 16.8992 7.1797 16.7016 7.17747C16.6089 7.17644 16.4802 7.13575 16.4156 7.08704C16.2603 6.97004 15.752 6.9713 15.6338 7.08897ZM19.6351 8.49305C19.3771 8.50275 19.166 8.53663 19.166 8.5684C19.166 8.60017 19.1369 8.62615 19.1012 8.62615C18.8619 8.62615 18.8634 8.59571 18.8634 13.5951V18.3917H19.0147C19.1089 18.3917 19.166 18.3576 19.166 18.3013C19.166 18.2511 19.2198 18.2109 19.2871 18.2109C19.3537 18.2109 19.4081 18.1838 19.4081 18.1506C19.4081 18.1175 19.474 18.0903 19.5544 18.0903C19.6349 18.0903 19.7098 18.07 19.7209 18.0451C19.7543 17.9702 20.1361 17.7889 20.2604 17.7889C20.3243 17.7889 20.3766 17.7618 20.3766 17.7286C20.3766 17.6955 20.4259 17.6684 20.4861 17.6684C20.5463 17.6684 20.6484 17.6285 20.7131 17.5799C20.7776 17.5312 20.8919 17.4905 20.9667 17.4894C21.0416 17.4884 21.1029 17.4604 21.1029 17.4272C21.1029 17.3941 21.1778 17.3661 21.2694 17.365C21.3609 17.364 21.4887 17.3233 21.5533 17.2746C21.618 17.226 21.7473 17.1861 21.8408 17.1861C21.9343 17.1861 22.0108 17.159 22.0108 17.1258C22.0108 17.0927 22.1334 17.0655 22.2832 17.0655C22.433 17.0655 22.5556 17.042 22.5556 17.0131C22.5556 16.9843 22.6841 16.9463 22.8411 16.9286C22.9982 16.911 23.1366 16.8667 23.1488 16.8303C23.1626 16.7893 23.3642 16.7641 23.6804 16.7641C23.9797 16.7641 24.1898 16.7392 24.1898 16.7039C24.1898 16.6675 24.4427 16.6436 24.8273 16.6436C25.2571 16.6436 25.5356 16.6141 25.6821 16.5532C25.8016 16.5034 26.0186 16.4627 26.1644 16.4627C26.3101 16.4627 26.4294 16.4356 26.4294 16.4025C26.4294 16.3693 26.5451 16.3413 26.6866 16.3402C26.8281 16.3392 26.9967 16.2985 27.0613 16.2498C27.126 16.2012 27.2417 16.1613 27.3186 16.1613C27.3954 16.1613 27.4583 16.1342 27.4583 16.101C27.4583 16.0679 27.5212 16.0408 27.5981 16.0408C27.675 16.0408 27.7907 16.0009 27.8553 15.9523C27.9199 15.9036 28.0205 15.8629 28.0787 15.8618C28.137 15.8608 28.1847 15.8328 28.1847 15.7996C28.1847 15.7665 28.2528 15.7394 28.336 15.7394C28.4192 15.7394 28.4873 15.7152 28.4873 15.6856C28.4873 15.656 28.5554 15.6148 28.6386 15.594C28.7218 15.5732 28.7899 15.5296 28.7899 15.4971C28.7899 15.4645 28.858 15.4379 28.9413 15.4379C29.0354 15.4379 29.0926 15.4038 29.0926 15.3475C29.0926 15.2978 29.1334 15.2571 29.1834 15.2571C29.2333 15.2571 29.2742 15.23 29.2742 15.1968C29.2742 15.1637 29.3187 15.1365 29.3731 15.1365C29.4276 15.1365 29.5352 15.0687 29.6124 14.9858C29.6895 14.903 29.7687 14.8351 29.7885 14.8351C29.8083 14.8351 29.89 14.7741 29.97 14.6995C30.2129 14.4734 30.2951 14.4132 30.3611 14.4132C30.3958 14.4132 30.4242 14.386 30.4242 14.3529C30.4242 14.3197 30.5264 14.186 30.6512 14.0558C30.9333 13.7615 31.0295 13.6451 31.0295 13.5979C31.0295 13.5777 31.1248 13.4716 31.2413 13.3622C31.3578 13.2527 31.4532 13.118 31.4532 13.0629C31.4532 13.0078 31.494 12.947 31.544 12.928C31.5939 12.9088 31.6347 12.8554 31.6347 12.8093C31.6347 12.7631 31.662 12.7253 31.6953 12.7253C31.7286 12.7253 31.7558 12.671 31.7558 12.6047C31.7558 12.5384 31.7801 12.4842 31.8098 12.4842C31.8394 12.4842 31.8808 12.4163 31.9017 12.3335C31.9226 12.2506 31.9664 12.1828 31.9991 12.1828C32.0317 12.1828 32.0584 12.1149 32.0584 12.032V11.8813H31.09C30.4847 11.8813 30.1216 11.8587 30.1216 11.8211C30.1216 11.7879 30.039 11.7608 29.938 11.7608C29.8371 11.7608 29.6567 11.7201 29.5372 11.6704C29.4177 11.6206 29.2415 11.5799 29.1457 11.5799C29.0499 11.5799 28.9715 11.5573 28.9715 11.5297C28.9715 11.5021 28.8081 11.4275 28.6084 11.364C28.4086 11.3004 28.2452 11.2281 28.2452 11.2032C28.2452 11.1783 28.1635 11.158 28.0636 11.158C27.9637 11.158 27.882 11.1308 27.882 11.0977C27.882 11.0645 27.8267 11.0374 27.7591 11.0374C27.6914 11.0374 27.6204 10.9967 27.6013 10.947C27.5821 10.8973 27.5012 10.8566 27.4216 10.8566C27.3419 10.8566 27.2767 10.8294 27.2767 10.7963C27.2767 10.7631 27.2214 10.736 27.1538 10.736C27.0861 10.736 27.0151 10.6953 26.996 10.6456C26.9768 10.5958 26.896 10.5552 26.8163 10.5552C26.7367 10.5552 26.6715 10.528 26.6715 10.4949C26.6715 10.4617 26.6199 10.4346 26.5569 10.4346C26.4939 10.4346 26.4266 10.3939 26.4074 10.3442C26.3883 10.2944 26.3173 10.2537 26.2497 10.2537C26.182 10.2537 26.1267 10.2266 26.1267 10.1935C26.1267 10.1603 26.0586 10.1332 25.9754 10.1332C25.8812 10.1332 25.8241 10.099 25.8241 10.0428C25.8241 9.98652 25.7669 9.95234 25.6728 9.95234C25.5895 9.95234 25.5214 9.92521 25.5214 9.89206C25.5214 9.8589 25.4661 9.83178 25.3985 9.83178C25.3308 9.83178 25.2598 9.79109 25.2407 9.74135C25.2215 9.69162 25.1407 9.65093 25.061 9.65093C24.9813 9.65093 24.9162 9.62381 24.9162 9.59065C24.9162 9.5575 24.8598 9.53037 24.7908 9.53037C24.7218 9.53037 24.6245 9.48968 24.5746 9.43995C24.5247 9.39021 24.4177 9.34952 24.3369 9.34952C24.256 9.34952 24.1898 9.3224 24.1898 9.28924C24.1898 9.25609 24.0968 9.22896 23.983 9.22896C23.8693 9.22896 23.7672 9.20865 23.756 9.18375C23.7212 9.10575 23.2848 8.92755 23.1285 8.92755C23.0465 8.92755 22.9793 8.90495 22.9793 8.87734C22.9793 8.81356 22.3932 8.68486 21.92 8.64483C21.7203 8.6279 21.5433 8.59311 21.5266 8.56749C21.4915 8.51342 20.3202 8.46731 19.6351 8.49305ZM50.7615 15.4942C50.7615 15.5251 50.8202 15.5689 50.8921 15.5917C51.0375 15.6376 51.4878 16.0591 51.4878 16.1492C51.4878 16.1809 51.531 16.2425 51.5837 16.2862C51.6628 16.3515 51.6762 16.477 51.6594 16.9969C51.6454 17.4334 51.6158 17.6361 51.5635 17.6534C51.5219 17.6672 51.4878 17.7304 51.4878 17.7939C51.4878 17.8575 51.4606 17.9095 51.4273 17.9095C51.394 17.9095 51.3667 17.9502 51.3667 17.9999C51.3667 18.0496 51.3259 18.0903 51.276 18.0903C51.226 18.0903 51.1852 18.1169 51.1852 18.1495C51.1852 18.182 51.1171 18.2256 51.0338 18.2464C50.9506 18.2672 50.8825 18.3084 50.8825 18.338C50.8825 18.3676 50.8144 18.3917 50.7312 18.3917C50.648 18.3917 50.5799 18.4189 50.5799 18.452C50.5799 18.4864 50.3983 18.5123 50.1562 18.5123C49.9141 18.5123 49.7325 18.4864 49.7325 18.452C49.7325 18.4189 49.6644 18.3917 49.5812 18.3917C49.498 18.3917 49.4299 18.3664 49.4299 18.3355C49.4299 18.3046 49.3685 18.26 49.2937 18.2365C49.2188 18.2129 49.1103 18.1365 49.0527 18.0666C48.995 17.9968 48.9202 17.9068 48.8863 17.8668C48.8523 17.8268 48.8246 17.7409 48.8246 17.676C48.8246 17.611 48.792 17.547 48.7521 17.5338C48.6486 17.4994 48.6457 16.5125 48.7489 16.478C48.7906 16.4641 48.8246 16.3756 48.8246 16.2815C48.8246 16.0717 49.0904 15.7908 49.4303 15.6415C49.5633 15.5831 49.672 15.5134 49.672 15.4867C49.672 15.4598 49.9171 15.4379 50.2167 15.4379C50.5163 15.4379 50.7615 15.4633 50.7615 15.4942Z" fill="#284C3A"/>
</svg>
